<svg xmlns="http://www.w3.org/2000/svg" width="24" height="24" viewBox="0 0 24 24">
  <g id="User_Pofile_Icon_" data-name="User Pofile Icon " transform="translate(7763 9841)">
    <rect id="Rectangle_17547" data-name="Rectangle 17547" width="24" height="24" transform="translate(-7763 -9841)" fill="none"/>
    <path id="person_FILL1_wght400_GRAD0_opsz48" d="M172,286.25a5.395,5.395,0,1,1,4.05-1.575A5.482,5.482,0,0,1,172,286.25Zm-9.75,12.038a2.241,2.241,0,0,1-2.25-2.25v-1.275a4.127,4.127,0,0,1,.712-2.437,4.574,4.574,0,0,1,1.838-1.538,28.187,28.187,0,0,1,4.819-1.687,19.48,19.48,0,0,1,4.631-.562,18.661,18.661,0,0,1,4.613.581,31.946,31.946,0,0,1,4.8,1.669,4.521,4.521,0,0,1,1.875,1.538,4.127,4.127,0,0,1,.712,2.438v1.275a2.241,2.241,0,0,1-2.25,2.25Z" transform="translate(-7923 -10116)" fill="#b3b3b3"/>
  </g>
</svg>
